<svg width="1196" height="626" viewBox="0 0 1196 626" fill="none" xmlns="http://www.w3.org/2000/svg">
<rect width="1195.16" height="625" rx="58" fill="#3D7069"/>
<rect x="554" width="415.796" height="99" rx="49.5" fill="white"/>
<rect x="500" width="98" height="53" fill="white"/>
<rect x="902" width="98" height="53" fill="white"/>
<rect x="970" width="189" height="86" rx="32" fill="#3D7069"/>
<rect x="365" width="189" height="86" rx="32" fill="#3D7069"/>
<rect x="423" y="419" width="758" height="191" rx="41" fill="#071919" stroke="white" stroke-width="30"/>
<rect x="335" y="562" width="86" height="63" fill="white"/>
<rect x="408" y="604" width="62" height="21" fill="white"/>
<rect x="285" y="527" width="123" height="98" rx="36" fill="#3D7069"/>
<rect x="1136" y="356" width="59" height="68" fill="white"/>
<rect x="1174" y="419" width="21" height="48" fill="white"/>
<rect x="1076" y="307" width="119" height="97" rx="41" fill="#3D7069"/>
<rect x="384" y="623" width="763" height="3" fill="white"/>
<rect x="1194" y="372" width="2" height="207" fill="white"/>
</svg>
