<svg width="1196" height="625" viewBox="0 0 1196 625" fill="none" xmlns="http://www.w3.org/2000/svg">
<rect width="1195.16" height="625" rx="58" fill="#3D7069"/>
<rect x="554" width="415.796" height="99" rx="49.5" fill="white"/>
<rect x="500" width="98" height="53" fill="white"/>
<rect x="902" width="98" height="53" fill="white"/>
<rect x="970" width="189" height="86" rx="32" fill="#3D7069"/>
<rect x="365" width="189" height="86" rx="32" fill="#3D7069"/>
<rect x="423" y="419" width="756" height="190" rx="43" fill="#071919" stroke="white" stroke-width="30"/>
<rect x="335" y="562" width="86" height="63" fill="white"/>
<rect x="405" y="603" width="62" height="21" fill="white"/>
<rect x="285" y="527" width="123" height="98" rx="36" fill="#3D7069"/>
<rect x="1136" y="356" width="59" height="68" fill="white"/>
<rect x="1173" y="418" width="21" height="48" fill="white"/>
<rect x="1076" y="307" width="119" height="97" rx="41" fill="#3D7069"/>
<rect x="373" y="624" width="49" height="1" fill="#3D7069"/>
<rect x="1194" y="363" width="1" height="63" fill="#3D7069"/>
<rect x="513" width="515" height="1" fill="#3D7069"/>
</svg>
